# xmcd
#
# Track frame offsets: 
#        150
#        24656
#        38311
#        51401
#        55499
#        64802
#        73659
#        87503
#        101800
#        106587
#        124368
#        144423
#
# Disc length: 2462 seconds
#
# Revision: 4
# Processed by: cddbd v1.5.2PL0 Copyright (c) Steve Scherf et al.
# Submitted via: ExactAudioCopy v1.3
#
DISCID=ab099c0c
DTITLE=Spirit - Spirit Of '76 - Disc One (UK 2003 BGOCD605)
DYEAR=1975
DGENRE=Rock
TTITLE0=America The Beautiful - The Times They Are A Changing
TTITLE1=Victim Of Society
TTITLE2=Lady Of The Lakes
TTITLE3=Tampa Jam (Pt.1)
TTITLE4=Maunaloa
TTITLE5=What Do I Have?
TTITLE6=Sunrise
TTITLE7=Walking The Dog
TTITLE8=Tampa Jam (Pt. 2)
TTITLE9=Joker On The Run
TTITLE10=When?
TTITLE11=Like A Rolling Stone
EXTD=YEAR: 1975
EXTT0=
EXTT1=
EXTT2=
EXTT3=
EXTT4=
EXTT5=
EXTT6=
EXTT7=
EXTT8=
EXTT9=
EXTT10=
EXTT11=
PLAYORDER=
